<svg id="visual" viewBox="0 0 900 600" width="900" height="600" xmlns="http://www.w3.org/2000/svg" xmlns:xlink="http://www.w3.org/1999/xlink" version="1.1"><rect x="0" y="0" width="900" height="600" fill="#ffffff"></rect><defs><linearGradient id="grad1_0" x1="33.3%" y1="100%" x2="100%" y2="0%"><stop offset="20%" stop-color="#ffd4b6" stop-opacity="1"></stop><stop offset="80%" stop-color="#ffd4b6" stop-opacity="1"></stop></linearGradient></defs><defs><linearGradient id="grad1_1" x1="33.3%" y1="100%" x2="100%" y2="0%"><stop offset="20%" stop-color="#ffd4b6" stop-opacity="1"></stop><stop offset="80%" stop-color="#ffffff" stop-opacity="1"></stop></linearGradient></defs><defs><linearGradient id="grad2_0" x1="0%" y1="100%" x2="66.7%" y2="0%"><stop offset="20%" stop-color="#ffd4b6" stop-opacity="1"></stop><stop offset="80%" stop-color="#ffd4b6" stop-opacity="1"></stop></linearGradient></defs><defs><linearGradient id="grad2_1" x1="0%" y1="100%" x2="66.7%" y2="0%"><stop offset="20%" stop-color="#ffffff" stop-opacity="1"></stop><stop offset="80%" stop-color="#ffd4b6" stop-opacity="1"></stop></linearGradient></defs><g transform="translate(900, 600)"><path d="M-378.6 0C-326.7 -34.3 -274.7 -68.6 -251.3 -104.1C-227.8 -139.6 -232.9 -176.4 -222 -222C-211.2 -267.7 -184.5 -322.2 -144.9 -349.8C-105.2 -377.3 -52.6 -378 0 -378.6L0 0Z" fill="#ffe9da"></path><path d="M-189.3 0C-163.3 -17.1 -137.4 -34.3 -125.6 -52C-113.9 -69.8 -116.4 -88.2 -111 -111C-105.6 -133.8 -92.3 -161.1 -72.4 -174.9C-52.6 -188.7 -26.3 -189 0 -189.3L0 0Z" fill="#ffd4b6"></path></g><g transform="translate(0, 0)"><path d="M378.6 0C354.4 41.2 330.2 82.4 316 130.9C301.7 179.4 297.3 235.1 267.7 267.7C238.1 300.3 183.2 309.7 134.3 324.3C85.5 338.9 42.7 358.7 0 378.6L0 0Z" fill="#ffe9da"></path><path d="M189.3 0C177.2 20.6 165.1 41.2 158 65.4C150.8 89.7 148.7 117.6 133.8 133.8C119 150.1 91.6 154.8 67.2 162.1C42.7 169.4 21.4 179.4 0 189.3L0 0Z" fill="#ffd4b6"></path></g></svg>