<svg id="visual" viewBox="0 0 900 300" width="900" height="300" xmlns="http://www.w3.org/2000/svg" xmlns:xlink="http://www.w3.org/1999/xlink" version="1.1"><rect x="0" y="0" width="900" height="300" fill="#ffffff"></rect><defs><linearGradient id="grad1_0" x1="66.7%" y1="100%" x2="100%" y2="0%"><stop offset="-10%" stop-color="#f4efbe" stop-opacity="1"></stop><stop offset="110%" stop-color="#f4efbe" stop-opacity="1"></stop></linearGradient></defs><defs><linearGradient id="grad1_1" x1="66.7%" y1="100%" x2="100%" y2="0%"><stop offset="-10%" stop-color="#f4efbe" stop-opacity="1"></stop><stop offset="110%" stop-color="#faf7de" stop-opacity="1"></stop></linearGradient></defs><defs><linearGradient id="grad1_2" x1="66.7%" y1="100%" x2="100%" y2="0%"><stop offset="-10%" stop-color="#ffffff" stop-opacity="1"></stop><stop offset="110%" stop-color="#faf7de" stop-opacity="1"></stop></linearGradient></defs><defs><linearGradient id="grad2_0" x1="0%" y1="100%" x2="33.3%" y2="0%"><stop offset="-10%" stop-color="#f4efbe" stop-opacity="1"></stop><stop offset="110%" stop-color="#f4efbe" stop-opacity="1"></stop></linearGradient></defs><defs><linearGradient id="grad2_1" x1="0%" y1="100%" x2="33.3%" y2="0%"><stop offset="-10%" stop-color="#faf7de" stop-opacity="1"></stop><stop offset="110%" stop-color="#f4efbe" stop-opacity="1"></stop></linearGradient></defs><defs><linearGradient id="grad2_2" x1="0%" y1="100%" x2="33.3%" y2="0%"><stop offset="-10%" stop-color="#faf7de" stop-opacity="1"></stop><stop offset="110%" stop-color="#ffffff" stop-opacity="1"></stop></linearGradient></defs><g transform="translate(900, 300)"><path d="M-270 0C-269.7 -39.1 -269.5 -78.2 -249.4 -103.3C-229.4 -128.4 -189.6 -139.5 -164 -164C-138.5 -188.6 -127.1 -226.8 -102.2 -246.7C-77.2 -266.6 -38.6 -268.3 0 -270L0 0Z" fill="#fdfbef"></path><path d="M-180 0C-179.8 -26.1 -179.7 -52.2 -166.3 -68.9C-152.9 -85.6 -126.4 -93 -109.4 -109.4C-92.3 -125.8 -84.8 -151.2 -68.1 -164.5C-51.5 -177.7 -25.7 -178.9 0 -180L0 0Z" fill="#f7f3ce"></path><path d="M-90 0C-89.9 -13 -89.8 -26.1 -83.1 -34.4C-76.5 -42.8 -63.2 -46.5 -54.7 -54.7C-46.2 -62.9 -42.4 -75.6 -34.1 -82.2C-25.7 -88.9 -12.9 -89.4 0 -90L0 0Z" fill="#f4efbe"></path></g><g transform="translate(0, 0)"><path d="M270 0C264 37.2 257.9 74.3 237.4 98.3C217 122.4 182.1 133.3 159.8 159.8C137.5 186.3 127.9 228.5 103.3 249.4C78.8 270.4 39.4 270.2 0 270L0 0Z" fill="#fdfbef"></path><path d="M180 0C176 24.8 171.9 49.5 158.3 65.6C144.6 81.6 121.4 88.9 106.5 106.5C91.7 124.2 85.2 152.3 68.9 166.3C52.5 180.3 26.3 180.1 0 180L0 0Z" fill="#f7f3ce"></path><path d="M90 0C88 12.4 86 24.8 79.1 32.8C72.3 40.8 60.7 44.4 53.3 53.3C45.8 62.1 42.6 76.2 34.4 83.1C26.3 90.1 13.1 90.1 0 90L0 0Z" fill="#f4efbe"></path></g></svg>